<svg width="118" height="116" viewBox="0 0 118 116" fill="none" xmlns="http://www.w3.org/2000/svg">
<path fill-rule="evenodd" clip-rule="evenodd" d="M84.269 7.13347C82.8795 5.60107 80.1337 2.5656 80.1337 2.5656L67.9712 4.72933C67.7529 5.03755 67.6028 5.34026 67.4608 5.62669C67.2196 6.11341 67.0017 6.55313 66.5116 6.89305C66.7087 7.34744 67.0332 7.66815 67.4846 7.85471L66.9981 8.33554C67.1796 8.42769 67.3435 8.51317 67.49 8.59202C68.8619 9.33067 68.698 9.48559 66.9981 9.05678C67.1884 9.64243 66.8639 10.0434 66.0251 10.2588C66.1843 10.4955 66.324 10.742 66.4443 10.9983C66.4675 11.0476 66.4899 11.0973 66.5116 11.1474C66.8059 11.8258 66.9681 12.5713 66.9981 13.3842C66.9957 14.4401 66.8337 15.4018 66.5116 16.2692C66.3015 16.851 65.977 17.3318 65.5386 17.7117C63.037 21.1126 59.6315 22.8753 55.3221 23.0008C54.1632 23.4965 53.0277 24.1375 51.9166 24.9241C53.1542 25.6545 54.4517 26.2954 55.8086 26.8474C56.5242 26.4238 56.9295 25.7829 57.0248 24.9241C57.507 25.616 58.1555 26.0968 58.9708 26.3666C59.5123 26.9724 59.5936 27.5336 59.2141 28.0495C60.6147 28.4697 61.9118 28.3091 63.1061 27.5687C60.5174 26.2411 60.7607 25.3592 63.8359 24.9241C63.9307 24.1033 63.9307 23.3018 63.8359 22.52C66.1283 22.3368 67.7498 21.215 68.7009 19.1542C68.895 19.2638 68.9758 19.4244 68.9441 19.635C70.733 17.7064 72.03 15.4624 72.8362 12.9034C73.3494 10.8964 73.8359 8.89282 74.2957 6.89305C77.7625 6.60696 80.033 8.12974 81.1067 11.4609C81.5625 14.2723 81.5625 17.077 81.1067 19.8754C80.0237 22.1242 79.132 24.4481 78.4309 26.8474C78.3711 29.6184 77.6413 32.1827 76.2417 34.5407C75.3314 35.1499 74.4397 35.1499 73.5659 34.5407C72.6922 35.4552 72.6109 36.4168 73.3227 37.4256C74.9524 37.505 76.574 37.4247 78.1877 37.1852C78.9174 36.7847 79.4852 36.2236 79.8904 35.5023C81.2901 29.8338 82.8304 24.224 84.5122 18.6733C84.7413 17.9997 85.0658 17.3588 85.4852 16.75C87.023 17.4294 88.4826 18.231 89.8637 19.1542C90.1148 20.2279 89.6283 21.0294 88.4042 21.5583C86.917 23.3653 85.5387 25.2886 84.269 27.3282C83.746 30.181 84.8002 31.0628 87.4312 29.9728C88.3201 27.8038 89.6176 25.9603 91.3232 24.4433C92.4081 22.6411 93.8676 22.2406 95.7018 23.2412C97.8949 25.893 99.3544 28.8582 100.08 32.1365C99.5938 32.2166 99.1073 32.2968 98.6208 32.3769C98.1343 32.4571 97.6478 32.5373 97.1613 32.6173C93.9144 34.1435 91.5631 36.5476 90.107 39.8298C89.1364 49.2093 93.4337 54.0175 102.999 54.2546C104.744 53.7526 106.527 53.3521 108.351 53.0525C109.183 53.5973 109.426 54.3185 109.081 55.2163C107.997 55.9918 106.78 56.3125 105.432 56.1779C104.202 56.4981 102.905 56.8184 101.54 57.1396C100.833 58.1705 100.995 59.0518 102.026 59.7841C103.803 60.0241 105.587 60.1039 107.378 60.0245C108.174 59.6014 109.066 59.2812 110.054 59.0629C110.513 59.2576 110.838 59.5783 111.027 60.0245C115.13 71.5937 112.454 81.2103 102.999 88.8742C104.687 89.1747 106.066 88.6939 107.135 87.4317C108.329 89.0228 107.924 90.2249 105.918 91.0379C106.284 91.3606 106.447 91.7611 106.405 92.24C117.026 83.7452 120.35 73.0064 116.378 60.0245C112.373 47.3475 107.508 35.0066 101.783 23.0008C97.7835 18.1742 92.8372 14.568 86.9447 12.1822C86.0544 10.5079 85.1622 8.82502 84.269 7.13347Z" fill="#170604"/>
<path fill-rule="evenodd" clip-rule="evenodd" d="M81.1067 11.4609C81.2575 13.0058 81.0955 14.4483 80.6202 15.7884C80.6202 15.3075 80.6202 14.8267 80.6202 14.3459C78.4596 13.6612 76.2704 13.0202 74.0524 12.4226C73.6136 12.5394 73.2083 12.7 72.8362 12.9034C73.3494 10.8964 73.8359 8.89282 74.2957 6.89305C77.7625 6.60696 80.033 8.12974 81.1067 11.4609Z" fill="#914C2B"/>
<path fill-rule="evenodd" clip-rule="evenodd" d="M66.5116 16.2692C66.3015 16.851 65.977 17.3318 65.5386 17.7117C65.4243 17.4246 65.1811 17.2645 64.8089 17.2309C59.8485 18.8926 54.9022 19.0527 49.9706 17.7117C49.1839 17.453 48.3729 17.2929 47.538 17.2309C47.7633 15.797 47.9253 14.3545 48.0245 12.9034C54.3201 13.2497 60.4602 12.6149 66.4443 10.9983C66.4668 10.9923 66.4892 10.9862 66.5116 10.9801C66.5116 11.0359 66.5116 11.0916 66.5116 11.1474C66.5116 12.8548 66.5116 14.5618 66.5116 16.2692Z" fill="#BD865E"/>
<path fill-rule="evenodd" clip-rule="evenodd" d="M49.9706 17.7117C49.5176 16.9746 49.1931 16.173 48.9976 15.3075C48.9747 14.5863 49.2987 14.1055 49.9706 13.8651C50.9436 14.506 51.9166 14.506 52.8896 13.8651C53.648 14.1411 54.3778 14.4613 55.0788 14.8267C55.4632 13.7256 56.1122 13.5655 57.0248 14.3459C59.2832 13.4246 61.6344 12.7837 64.0791 12.4226C64.5656 12.5827 65.0521 12.7433 65.5386 12.9034C65.1348 13.6896 65.0536 14.4911 65.2954 15.3075C64.084 15.5427 63.1917 16.1841 62.6196 17.2309C58.4157 17.7107 54.1992 17.8708 49.9706 17.7117Z" fill="#C98755"/>
<path fill-rule="evenodd" clip-rule="evenodd" d="M80.6202 15.7884C79.385 21.3107 77.8447 26.7604 75.9984 32.1365C75.1203 33.3573 73.904 33.8382 72.3497 33.579C72.9257 33.0078 72.9257 32.4467 72.3497 31.8961C72.7953 31.7624 73.1193 31.522 73.3227 31.1749C75.2974 29.5617 75.1349 28.0394 72.8362 26.607C70.2621 25.2453 67.5056 24.6043 64.5656 24.6837C65.6384 23.4624 66.8546 22.4204 68.2144 21.5583C68.5992 20.9597 68.8425 20.3187 68.9441 19.635C70.733 17.7064 72.03 15.4624 72.8362 12.9034C73.2083 12.7 73.6136 12.5394 74.0524 12.4226C76.2704 13.0202 78.4596 13.6612 80.6202 14.3459C80.6202 14.8267 80.6202 15.3075 80.6202 15.7884Z" fill="#A76841"/>
<path fill-rule="evenodd" clip-rule="evenodd" d="M75.2687 16.2692C77.6457 15.7427 78.4562 16.5442 77.7012 18.6733C75.0906 19.6196 74.2796 18.8181 75.2687 16.2692Z" fill="#200400"/>
<path fill-rule="evenodd" clip-rule="evenodd" d="M88.4042 21.5583C87.5563 20.0879 86.2587 19.1263 84.5122 18.6733C84.7413 17.9997 85.0658 17.3588 85.4852 16.75C87.023 17.4294 88.4826 18.231 89.8637 19.1542C90.1148 20.2279 89.6283 21.0294 88.4042 21.5583Z" fill="#915939"/>
<path fill-rule="evenodd" clip-rule="evenodd" d="M47.538 17.2309C48.3729 17.2929 49.1839 17.453 49.9706 17.7117C54.9022 19.0527 59.8485 18.8926 64.8089 17.2309C65.1811 17.2645 65.4243 17.4246 65.5386 17.7117C63.037 21.1126 59.6315 22.8753 55.3221 23.0008C53.1829 23.0368 51.0749 22.7964 48.9976 22.2795C46.2941 21.2938 45.8076 19.6109 47.538 17.2309Z" fill="#F7E4C8"/>
<path fill-rule="evenodd" clip-rule="evenodd" d="M33.916 19.1542C36.3451 19.3931 36.8316 20.4351 35.3755 22.2795C32.7717 22.3637 32.2852 21.3222 33.916 19.1542Z" fill="#240500"/>
<path fill-rule="evenodd" clip-rule="evenodd" d="M73.3227 21.5583C76.2684 21.29 76.9169 22.332 75.2687 24.6837C72.8702 24.889 72.2217 23.847 73.3227 21.5583Z" fill="#250C04"/>
<path fill-rule="evenodd" clip-rule="evenodd" d="M97.1613 32.6173C96.8163 32.1827 96.3298 32.0226 95.7018 32.1365C95.0552 29.0996 93.5957 26.5354 91.3232 24.4433C92.4081 22.6411 93.8676 22.2406 95.7018 23.2412C97.8949 25.893 99.3544 28.8582 100.08 32.1365C99.1073 32.2966 98.1343 32.4572 97.1613 32.6173Z" fill="#9B5631"/>
<path fill-rule="evenodd" clip-rule="evenodd" d="M51.4301 27.3282C52.4031 27.3282 53.3761 27.3282 54.3491 27.3282C54.3491 28.9308 54.3491 30.5339 54.3491 32.1365C53.3761 32.1365 52.4031 32.1365 51.4301 32.1365C51.4301 30.5339 51.4301 28.9308 51.4301 27.3282Z" fill="#8E5C40"/>
<path fill-rule="evenodd" clip-rule="evenodd" d="M46.565 26.3666C47.3649 26.2637 48.0946 26.4243 48.7543 26.8474C48.6804 28.2644 48.5991 29.7069 48.5111 31.1749C47.7112 31.2778 46.9815 31.1172 46.3218 30.694C45.9637 29.2073 46.045 27.7648 46.565 26.3666Z" fill="#89563C"/>
<path fill-rule="evenodd" clip-rule="evenodd" d="M73.3227 31.1749C73.1193 31.522 72.7953 31.7624 72.3497 31.8961C72.9257 32.4467 72.9257 33.0078 72.3497 33.579C68.2825 33.7382 64.2285 33.578 60.1871 33.0982C62.1321 30.0531 64.8887 28.851 68.4576 29.492C70.0427 30.1973 71.6647 30.758 73.3227 31.1749Z" fill="#8F492C"/>
<path fill-rule="evenodd" clip-rule="evenodd" d="M98.1343 35.9831C99.4707 35.8326 100.768 35.9927 102.026 36.464C102.612 38.0214 103.261 39.5441 103.972 41.0318C102.887 41.5833 101.751 42.0642 100.567 42.4743C99.7932 43.6668 100.036 44.5481 101.297 45.1189C102.58 44.4005 103.959 44.0798 105.432 44.1572C105.772 45.6348 106.258 47.0773 106.891 48.4847C106.16 49.4088 105.187 49.9695 103.972 50.1676C95.7558 50.8628 92.5935 47.2566 94.4855 39.3489C95.6512 38.1146 96.8674 36.9929 98.1343 35.9831Z" fill="#EEDDC6"/>
<path fill-rule="evenodd" clip-rule="evenodd" d="M99.1073 38.3873C101.993 38.6897 102.236 39.6514 99.837 41.2722C98.847 42.7441 98.2797 44.3471 98.1343 46.0805C97.3077 46.1575 96.4967 46.0776 95.7018 45.8401C95.3009 42.7037 96.4359 40.2192 99.1073 38.3873Z" fill="#1F110E"/>
<path fill-rule="evenodd" clip-rule="evenodd" d="M102.999 46.0805C103.648 46.0805 104.297 46.0805 104.945 46.0805C105.049 46.871 104.887 47.5922 104.459 48.2443C102.884 48.902 101.262 49.0621 99.5938 48.7251C99.099 48.2207 99.0178 47.6596 99.3505 47.0422C100.619 46.7426 101.835 46.4219 102.999 46.0805Z" fill="#1A0C07"/>
<path fill-rule="evenodd" clip-rule="evenodd" d="M24.1859 29.7324C22.3353 31.4557 20.957 33.5391 20.0507 35.9831C16.8072 43.6764 13.5641 51.3696 10.3206 59.0629C9.56071 60.7525 9.15546 62.5157 9.10437 64.352C7.80687 65.7945 7.80687 67.237 9.10437 68.6794C7.63076 70.2945 6.17125 71.8971 4.72585 73.4877C4.66212 70.8537 5.06738 68.2895 5.94211 65.7945C10.7706 54.4839 15.4737 43.1042 20.0507 31.6557C21.1648 29.6752 22.5435 27.912 24.1859 26.3666C24.7766 27.5009 24.7766 28.6226 24.1859 29.7324Z" fill="#E9DBC2"/>
<path fill-rule="evenodd" clip-rule="evenodd" d="M105.432 56.1779C105.075 55.5971 104.913 54.9561 104.945 54.2546C104.297 54.2546 103.648 54.2546 102.999 54.2546C104.744 53.7526 106.527 53.3521 108.351 53.0525C109.183 53.5973 109.426 54.3185 109.081 55.2163C107.997 55.9918 106.78 56.3125 105.432 56.1779Z" fill="#92583B"/>
<path fill-rule="evenodd" clip-rule="evenodd" d="M12.9964 67.237C14.8281 66.5446 16.6121 66.785 18.3479 67.9582C20.254 69.7204 19.7675 70.6018 16.8884 70.6027C16.5085 68.3832 15.2109 67.2615 12.9964 67.237Z" fill="#8E593A"/>
<path fill-rule="evenodd" clip-rule="evenodd" d="M87.9177 51.8505C86.7715 49.7916 85.2308 49.4708 83.296 50.8888C83.9736 55.3042 85.3519 59.5514 87.4312 63.6307C87.35 63.8712 87.2692 64.1116 87.188 64.352C84.7555 62.7494 83.6205 63.3903 83.7825 66.2753C84.899 67.035 85.5475 67.9967 85.7285 69.1603C82.9715 71.5644 80.2149 73.9685 77.4579 76.3727C77.2911 78.1926 77.5343 79.9558 78.1877 81.6618C77.5596 81.5478 77.0731 81.7079 76.7282 82.1426C75.9396 79.9236 74.9666 77.7599 73.8092 75.6514C71.1334 75.0903 70.0791 76.1323 70.6469 78.7768C72.4061 86.7384 75.7304 93.9508 80.6202 100.414C80.32 100.467 80.0768 100.628 79.8904 100.895C76.6445 96.7271 73.888 92.2395 71.6199 87.4317C71.4579 86.1494 71.2954 84.8675 71.1334 83.5851C70.932 83.3654 70.6887 83.2048 70.4036 83.1043C70.2363 80.9555 69.5878 79.0321 68.4576 77.3343C68.7126 76.3953 69.1991 75.5937 69.9171 74.9302C69.8155 74.6484 69.653 74.408 69.4306 74.209C70.2027 73.7945 71.0137 73.4738 71.8632 73.2473C71.7011 73.0872 71.5387 72.9266 71.3767 72.7665C72.4465 72.0053 73.5815 71.925 74.7822 72.5261C74.7822 71.8851 74.7822 71.2437 74.7822 70.6027C73.3956 70.6681 72.0174 70.8283 70.6469 71.0836C69.687 71.1754 68.9573 70.8547 68.4576 70.1219C71.1378 69.5137 73.8135 69.5137 76.4849 70.1219C77.8753 69.155 79.4161 68.514 81.1067 68.1986C81.998 68.8338 82.971 69.3146 84.0257 69.6411C84.1824 67.7899 83.5339 66.2671 82.0797 65.0732C81.0668 65.5214 79.9318 65.7618 78.6742 65.7945C79.9673 64.5852 81.0216 63.1427 81.8364 61.467C82.1609 55.3764 82.1609 49.2862 81.8364 43.1956C81.6102 42.5075 81.2045 41.9469 80.6202 41.5127C75.4307 41.192 70.2416 41.192 65.0521 41.5127C64.6469 41.9132 64.2411 42.3142 63.8359 42.7147C63.5114 48.9655 63.5114 55.2163 63.8359 61.467C64.0854 61.9608 64.3287 62.4417 64.5656 62.9095C64.1292 63.4374 63.724 63.4374 63.3494 62.9095C63.2166 62.1397 62.9733 61.4185 62.6196 60.7458C62.7938 55.0922 62.875 49.4021 62.8629 43.6764C63.0818 42.7056 63.487 41.8242 64.0791 41.0318C66.7846 40.4928 69.5411 40.2524 72.3497 40.3106C75.3071 40.263 78.2261 40.5034 81.1067 41.0318C81.6316 41.4915 82.1989 41.892 82.8095 42.2339C83.0522 44.3116 83.1335 46.395 83.0527 48.4847C84.5472 48.3322 86.0067 48.4924 87.4312 48.9655C87.8438 49.8834 88.0063 50.845 87.9177 51.8505Z" fill="#978D6D"/>
<path fill-rule="evenodd" clip-rule="evenodd" d="M12.9964 67.237C15.2109 67.2615 16.5085 68.3832 16.8884 70.6027C11.6522 72.0096 8.00342 75.2153 5.94211 80.2193C4.98175 78.0791 4.5765 75.8351 4.72585 73.4877C6.17125 71.8971 7.63076 70.2945 9.10437 68.6794C10.2856 67.9375 11.5826 67.4567 12.9964 67.237Z" fill="#9A8F6C"/>
<path fill-rule="evenodd" clip-rule="evenodd" d="M84.5122 18.6733C86.2587 19.1263 87.5563 20.0879 88.4042 21.5583C86.917 23.3653 85.5387 25.2886 84.269 27.3282C83.746 30.181 84.8002 31.0628 87.4312 29.9728C88.3201 27.8038 89.6176 25.9603 91.3232 24.4433C93.5957 26.5354 95.0552 29.0996 95.7018 32.1365C96.3298 32.0226 96.8163 32.1827 97.1613 32.6173C93.9144 34.1435 91.5631 36.5476 90.107 39.8298C89.1364 49.2093 93.4337 54.0175 102.999 54.2546C103.648 54.2546 104.297 54.2546 104.945 54.2546C104.913 54.9561 105.075 55.5971 105.432 56.1779C104.202 56.4981 102.905 56.8184 101.54 57.1396C100.833 58.1705 100.995 59.0518 102.026 59.7841C103.803 60.0241 105.587 60.1039 107.378 60.0245C109.68 66.459 109.275 72.7097 106.162 78.7768C105.27 79.3379 104.54 80.0592 103.972 80.9405C103.511 81.1728 103.025 81.2526 102.513 81.181C101.103 79.8044 99.9679 80.0448 99.1073 81.9022C99.2255 82.3359 99.388 82.7364 99.5938 83.1043C99.2231 83.9515 98.5741 84.4323 97.6478 84.5468C96.8854 82.8797 95.9932 81.2771 94.972 79.7385C93.008 77.8781 91.1432 75.9548 89.3772 73.9685C92.4758 70.1974 96.5298 68.5145 101.54 68.9198C101.906 68.5972 102.068 68.1967 102.026 67.7178C103.631 68.5275 104.604 68.0467 104.945 66.2753C104.571 65.0232 103.76 64.1414 102.513 63.6307C101.064 62.8744 99.5242 62.4739 97.891 62.4287C95.8691 62.8018 93.8419 63.122 91.8097 63.3903C90.6105 59.5139 89.313 55.6673 87.9177 51.8505C88.0063 50.845 87.8438 49.8834 87.4312 48.9655C86.0067 48.4924 84.5472 48.3322 83.0527 48.4847C83.1335 46.395 83.0522 44.3116 82.8095 42.2339C82.1989 41.892 81.6316 41.4915 81.1067 41.0318C78.2261 40.5034 75.3071 40.263 72.3497 40.3106C69.5411 40.2524 66.7846 40.4928 64.0791 41.0318C63.487 41.8242 63.0818 42.7056 62.8629 43.6764C62.875 49.4021 62.7938 55.0922 62.6196 60.7458C62.9733 61.4185 63.2166 62.1397 63.3494 62.9095C63.724 63.4374 64.1292 63.4374 64.5656 62.9095C65.561 64.2876 66.8585 65.3295 68.4576 66.0349C71.8807 66.3811 75.2862 66.3008 78.6742 65.7945C79.9318 65.7618 81.0668 65.5214 82.0797 65.0732C83.5339 66.2671 84.1824 67.7899 84.0257 69.6411C82.971 69.3146 81.998 68.8338 81.1067 68.1986C79.4161 68.514 77.8753 69.155 76.4849 70.1219C73.8135 69.5137 71.1378 69.5137 68.4576 70.1219C68.9573 70.8547 69.687 71.1754 70.6469 71.0836C72.0174 70.8283 73.3956 70.6681 74.7822 70.6027C74.7822 71.2437 74.7822 71.8851 74.7822 72.5261C73.5815 71.925 72.4465 72.0053 71.3767 72.7665C71.5387 72.9266 71.7011 73.0872 71.8632 73.2473C71.0137 73.4738 70.2027 73.7945 69.4306 74.209C69.653 74.408 69.8155 74.6484 69.9171 74.9302C69.1991 75.5937 68.7126 76.3953 68.4576 77.3343C69.5878 79.0321 70.2363 80.9555 70.4036 83.1043C70.6887 83.2048 70.932 83.3654 71.1334 83.5851C71.2954 84.8675 71.4579 86.1494 71.6199 87.4317C73.888 92.2395 76.6445 96.7271 79.8904 100.895C80.0768 100.628 80.32 100.467 80.6202 100.414C81.6414 101.046 81.8039 101.848 81.1067 102.818C73.3227 102.818 65.5386 102.818 57.7546 102.818C57.6733 81.3406 57.7546 59.8635 57.9978 38.3873C59.8641 37.479 61.8913 37.1588 64.0791 37.4256C67.1601 37.4256 70.2416 37.4256 73.3227 37.4256C74.9524 37.505 76.574 37.4247 78.1877 37.1852C78.9174 36.7847 79.4852 36.2236 79.8904 35.5023C81.2901 29.8338 82.8304 24.224 84.5122 18.6733Z" fill="#9B916A"/>
<path fill-rule="evenodd" clip-rule="evenodd" d="M96.1883 71.5644C97.5758 71.4932 98.3868 72.1347 98.6208 73.4877C97.4619 76.0424 96.3269 76.0424 95.2153 73.4877C95.3627 72.7117 95.6872 72.0702 96.1883 71.5644Z" fill="#1B1109"/>
<path fill-rule="evenodd" clip-rule="evenodd" d="M102.026 67.7178C102.068 68.1967 101.906 68.5972 101.54 68.9198C96.5298 68.5145 92.4758 70.1974 89.3772 73.9685C88.3137 73.9633 87.9085 73.4824 88.161 72.5261C90.4821 69.9123 93.3203 68.0693 96.6748 66.9965C98.5882 66.5715 100.372 66.8119 102.026 67.7178Z" fill="#ECD9BB"/>
<path fill-rule="evenodd" clip-rule="evenodd" d="M78.6742 65.7945C75.2862 66.3008 71.8807 66.3811 68.4576 66.0349C66.8585 65.3295 65.561 64.2876 64.5656 62.9095C64.3287 62.4417 64.0854 61.9608 63.8359 61.467C63.5114 55.2163 63.5114 48.9655 63.8359 42.7147C64.2411 42.3142 64.6469 41.9132 65.0521 41.5127C70.2416 41.192 75.4307 41.192 80.6202 41.5127C81.2045 41.9469 81.6102 42.5075 81.8364 43.1956C82.1609 49.2862 82.1609 55.3764 81.8364 61.467C81.0216 63.1427 79.9673 64.5852 78.6742 65.7945Z" fill="#170603"/>
<path fill-rule="evenodd" clip-rule="evenodd" d="M67.9711 45.1189C71.2146 45.1189 74.4577 45.1189 77.7012 45.1189C77.7814 46.57 77.7002 48.0125 77.4579 49.4463C76.0938 51.0778 74.4723 52.3597 72.5929 53.2929C71.3008 52.338 70.0032 51.3764 68.7009 50.408C68.0504 48.7126 67.8072 46.9499 67.9711 45.1189Z" fill="#988F71"/>
<path fill-rule="evenodd" clip-rule="evenodd" d="M71.8632 47.523C74.0407 47.6673 74.6897 48.7092 73.8092 50.6484C70.8118 51.0706 70.1633 50.0286 71.8632 47.523Z" fill="#170A02"/>
<path fill-rule="evenodd" clip-rule="evenodd" d="M15.4289 75.411C17.9509 75.0177 18.9239 75.9794 18.3479 78.296C18.0628 78.3965 17.8196 78.5571 17.6182 78.7768C16.7264 77.8955 15.8342 77.0136 14.9424 76.1323C15.2129 75.9481 15.3749 75.7077 15.4289 75.411Z" fill="#8E583D"/>
<path fill-rule="evenodd" clip-rule="evenodd" d="M12.0234 78.296C13.839 78.5705 14.8928 79.5322 15.1857 81.181C13.5427 81.6012 12.3265 80.9603 11.5369 79.2576C11.7135 78.9292 11.8755 78.6085 12.0234 78.296Z" fill="#965C3B"/>
<path fill-rule="evenodd" clip-rule="evenodd" d="M24.1859 29.7324C24.1057 31.5028 24.1864 33.2655 24.4292 35.0215C24.562 35.9009 24.9678 36.6222 25.6454 37.1852C31.1152 37.2708 36.548 37.5112 41.9433 37.9065C42.1865 44.7962 42.2678 51.6884 42.1865 58.5821C42.1865 73.3276 42.1865 88.0727 42.1865 102.818C40.0785 102.818 37.97 102.818 35.862 102.818C30.5105 102.818 25.1589 102.818 19.8074 102.818C19.731 102.158 19.8123 101.517 20.0507 100.895C21.1857 100.414 21.9967 99.6125 22.4832 98.4908C24.9473 92.1467 27.2173 85.7358 29.2942 79.2576C30.2264 75.4447 29.0101 74.483 25.6454 76.3727C25.6454 73.0069 25.6454 69.6411 25.6454 66.2753C28.0833 66.3551 30.5158 66.2748 32.943 66.0349C35.9802 64.929 37.683 62.7653 38.0513 59.5437C38.3758 54.2546 38.3758 48.9655 38.0513 43.6764C37.6694 42.8176 37.1021 42.0964 36.3485 41.5127C34.727 41.1919 33.105 41.1919 31.4835 41.5127C29.8352 43.8644 30.4837 44.9063 33.4295 44.638C33.5098 46.2488 33.4285 47.8514 33.1862 49.4463C31.842 50.8676 30.3018 51.9899 28.5645 52.8121C24.5781 51.4461 22.7941 48.7217 23.2129 44.638C24.1991 44.7159 25.1721 44.6356 26.132 44.3976C27.4295 43.436 27.4295 42.4743 26.132 41.5127C23.8313 41.0338 21.642 41.2742 19.5642 42.2339C19.4824 46.8902 19.2392 51.5384 18.8344 56.1779C17.7398 55.073 16.4428 54.6724 14.9424 54.9758C13.5846 56.4106 13.7466 57.6127 15.4289 58.5821C15.2037 59.8904 14.8796 61.1728 14.4559 62.4287C12.4588 62.559 10.6748 63.2004 9.10437 64.352C9.15546 62.5157 9.56071 60.7525 10.3206 59.0629C13.5641 51.3696 16.8072 43.6764 20.0507 35.9831C20.957 33.5391 22.3353 31.4557 24.1859 29.7324Z" fill="#9B926B"/>
<path fill-rule="evenodd" clip-rule="evenodd" d="M37.3215 76.8535C37.9647 76.7718 38.5324 76.9319 39.0243 77.3343C39.2651 78.283 39.3463 79.2447 39.2675 80.2193C36.2741 80.3987 35.6256 79.2764 37.3215 76.8535Z" fill="#150803"/>
<path fill-rule="evenodd" clip-rule="evenodd" d="M15.4289 58.5821C18.3693 58.9206 19.6668 60.5236 19.3209 63.3903C17.767 62.7854 16.1455 62.4652 14.4559 62.4287C14.8796 61.1728 15.2037 59.8904 15.4289 58.5821Z" fill="#975A38"/>
<path fill-rule="evenodd" clip-rule="evenodd" d="M23.2129 55.2163C24.7381 56.4828 26.4409 57.4444 28.3212 58.1012C30.1933 57.4579 31.896 56.4962 33.4295 55.2163C34.2376 57.493 33.9131 59.5764 32.4565 61.467C30.04 62.0257 27.6075 62.106 25.1589 61.7074C24.0774 61.3939 23.5097 60.6727 23.4562 59.5437C23.2139 58.1099 23.1327 56.6674 23.2129 55.2163Z" fill="#AC7047"/>
<path fill-rule="evenodd" clip-rule="evenodd" d="M27.105 47.523C30.0507 47.2547 30.6992 48.2967 29.051 50.6484C26.6525 50.8537 26.004 49.8117 27.105 47.523Z" fill="#140803"/>
<path fill-rule="evenodd" clip-rule="evenodd" d="M25.6454 66.2753C25.6454 69.6411 25.6454 73.0069 25.6454 76.3727C24.2998 80.6891 22.6783 84.8564 20.7804 88.8742C19.4829 87.9126 18.3479 86.7908 17.3749 85.5084C18.5469 83.1495 20.4121 81.5469 22.9697 80.7001C23.2129 75.7341 23.2937 70.7657 23.2129 65.7945C24.0478 65.8565 24.8588 66.0166 25.6454 66.2753Z" fill="#F7E4C9"/>
<path fill-rule="evenodd" clip-rule="evenodd" d="M102.513 81.181C102.474 83.2807 101.501 83.9222 99.5938 83.1043C99.388 82.7364 99.2255 82.3359 99.1073 81.9022C99.9679 80.0448 101.103 79.8044 102.513 81.181Z" fill="#1E0501"/>
<path fill-rule="evenodd" clip-rule="evenodd" d="M102.999 88.8742C101.94 89.5613 100.805 89.9623 99.5938 90.0763C98.8786 88.2602 98.2296 86.4172 97.6478 84.5468C98.5741 84.4323 99.2231 83.9515 99.5938 83.1043C101.501 83.9222 102.474 83.2807 102.513 81.181C103.025 81.2526 103.511 81.1728 103.972 80.9405C104.54 80.0592 105.27 79.3379 106.162 78.7768C109.275 72.7097 109.68 66.459 107.378 60.0245C108.174 59.6014 109.066 59.2812 110.054 59.0629C110.513 59.2576 110.838 59.5783 111.027 60.0245C115.13 71.5937 112.454 81.2103 102.999 88.8742Z" fill="#9B5530"/>
<path fill-rule="evenodd" clip-rule="evenodd" d="M9.59088 81.6618C10.5459 82.3638 11.4376 83.1653 12.2666 84.0659C12.6067 84.8227 12.4442 85.4637 11.7801 85.9892C9.55682 85.1824 8.82707 83.7399 9.59088 81.6618Z" fill="#7B4731"/>
<path fill-rule="evenodd" clip-rule="evenodd" d="M8.61787 87.4317C8.64706 87.1706 8.80907 87.0105 9.10437 86.9509C10.6753 87.612 11.243 88.7338 10.8071 90.3167C9.94894 89.4084 9.21919 88.4468 8.61787 87.4317Z" fill="#764F3C"/>
<path fill-rule="evenodd" clip-rule="evenodd" d="M17.3749 85.5084C18.3479 86.7908 19.4829 87.9126 20.7804 88.8742C20.1344 90.6287 19.4858 92.3915 18.8344 94.1633C14.8237 91.8178 14.3372 88.9329 17.3749 85.5084Z" fill="#BB875F"/>
<path fill-rule="evenodd" clip-rule="evenodd" d="M30.024 86.4701C31.0476 86.3263 32.0206 86.4864 32.943 86.9509C33.5287 89.3353 32.5557 90.2167 30.024 89.5954C29.4864 88.5761 29.4864 87.5341 30.024 86.4701Z" fill="#170B04"/>
<path fill-rule="evenodd" clip-rule="evenodd" d="M29.5375 93.2017C31.4771 93.2747 32.2069 94.2364 31.7267 96.0866C30.7946 97.3046 29.8216 97.3046 28.8077 96.0866C28.4438 94.9615 28.6871 93.9998 29.5375 93.2017Z" fill="#190E06"/>
<path fill-rule="evenodd" clip-rule="evenodd" d="M36.835 96.5675C39.1838 96.5122 39.8323 97.5541 38.781 99.6928C35.9778 99.8938 35.3288 98.8519 36.835 96.5675Z" fill="#170C04"/>
<path fill-rule="evenodd" clip-rule="evenodd" d="M19.8074 107.146C20.4559 107.146 21.1049 107.146 21.7534 107.146C21.7534 108.428 21.7534 109.71 21.7534 110.992C21.1049 110.992 20.4559 110.992 19.8074 110.992C19.8074 109.71 19.8074 108.428 19.8074 107.146Z" fill="#9D6C4B"/>
<path fill-rule="evenodd" clip-rule="evenodd" d="M28.5645 106.665C28.5645 108.107 28.5645 109.55 28.5645 110.992C27.4295 110.992 26.294 110.992 25.1589 110.992C25.1589 109.55 25.1589 108.107 25.1589 106.665C26.294 106.665 27.4295 106.665 28.5645 106.665Z" fill="#8D5936"/>
<path fill-rule="evenodd" clip-rule="evenodd" d="M64.0791 37.4256C61.8913 37.1588 59.8641 37.479 57.9978 38.3873C57.7546 59.8635 57.6733 81.3406 57.7546 102.818C65.5386 102.818 73.3227 102.818 81.1067 102.818C82.5662 102.818 84.0257 102.818 85.4852 102.818C85.402 99.7505 84.3483 99.1096 82.323 100.895C81.8311 100.492 81.2633 100.332 80.6202 100.414C75.7304 93.9508 72.4061 86.7384 70.6469 78.7768C70.0791 76.1323 71.1334 75.0903 73.8092 75.6514C74.9666 77.7599 75.9396 79.9236 76.7282 82.1426C77.4132 84.8155 78.3862 87.3798 79.6472 89.8359C80.2792 92.0457 81.4142 93.9691 83.0527 95.6058C84.321 94.9129 85.132 93.8715 85.4852 92.4804C84.8099 90.5792 83.8369 88.8963 82.5662 87.4317C81.5732 85.1415 80.1137 83.2182 78.1877 81.6618C77.5343 79.9558 77.2911 78.1926 77.4579 76.3727C80.2149 73.9685 82.9715 71.5644 85.7285 69.1603C85.5475 67.9967 84.899 67.035 83.7825 66.2753C83.6205 63.3903 84.7555 62.7494 87.188 64.352C87.2692 64.1116 87.35 63.8712 87.4312 63.6307C85.3519 59.5514 83.9736 55.3042 83.296 50.8888C85.2308 49.4708 86.7715 49.7916 87.9177 51.8505C89.313 55.6673 90.6105 59.5139 91.8097 63.3903C93.8419 63.122 95.8691 62.8018 97.891 62.4287C99.5242 62.4739 101.064 62.8744 102.513 63.6307C103.76 64.1414 104.571 65.0232 104.945 66.2753C104.604 68.0467 103.631 68.5275 102.026 67.7178C100.372 66.8119 98.5882 66.5715 96.6748 66.9965C93.3203 68.0693 90.4821 69.9123 88.161 72.5261C87.9085 73.4824 88.3137 73.9633 89.3772 73.9685C91.1432 75.9548 93.008 77.8781 94.972 79.7385C95.9932 81.2771 96.8854 82.8797 97.6478 84.5468C98.2296 86.4172 98.8786 88.2602 99.5938 90.0763C100.805 89.9623 101.94 89.5613 102.999 88.8742C104.687 89.1747 106.066 88.6939 107.135 87.4317C108.329 89.0228 107.924 90.2249 105.918 91.0379C106.284 91.3606 106.447 91.7611 106.405 92.24C103.864 93.7777 101.35 95.3803 98.864 97.0483C98.702 102.658 98.5395 108.267 98.3775 113.877C98.1956 114.318 97.9523 114.719 97.6478 115.079C86.1658 115.786 74.6518 116.027 63.1061 115.801C60.1 115.48 57.019 115.16 53.8626 114.839C54.4021 114.135 54.1589 113.654 53.1328 113.396C52.8283 114.594 52.423 114.594 51.9166 113.396C51.4101 114.594 51.0049 114.594 50.7003 113.396C50.2085 113.799 49.6407 113.959 48.9976 113.877C48.9976 114.358 48.9976 114.839 48.9976 115.32C46.8603 115.34 46.6983 115.1 48.5111 114.598C47.9433 114.518 47.376 114.438 46.8083 114.358C44.349 115.204 41.8353 115.445 39.2675 115.079C38.3422 114.984 37.6124 114.583 37.0782 113.877C36.637 114.891 35.9072 115.532 34.889 115.801C34.727 115.801 34.5645 115.801 34.4025 115.801C33.175 115.438 31.878 115.118 30.5105 114.839C30.5105 114.198 30.5105 113.557 30.5105 112.916C29.8994 114.119 29.1697 114.921 28.3212 115.32C26.8072 114.83 25.591 113.948 24.6724 112.675C26.2171 112.438 27.5141 111.877 28.5645 110.992C28.5645 109.55 28.5645 108.107 28.5645 106.665C28.0726 105.765 27.6669 104.803 27.3482 103.78C26.9707 105.294 26.2409 105.534 25.1589 104.501C25.321 104.341 25.4834 104.18 25.6454 104.02C25.4022 103.94 25.1589 103.86 24.9157 103.78C24.6724 103.7 24.4292 103.62 24.1859 103.539C28.1641 103.457 32.0561 103.217 35.862 102.818C37.97 102.818 40.0785 102.818 42.1865 102.818C42.1865 88.0727 42.1865 73.3276 42.1865 58.5821C42.5908 52.2544 42.8341 45.843 42.9163 39.3489C42.9973 39.5093 43.0784 39.6695 43.1595 39.8298C43.2034 39.9164 43.2472 40.003 43.2911 40.0896C43.3283 40.1633 43.3656 40.2369 43.4028 40.3106C44.7144 38.219 44.1466 36.9366 41.7 36.464C41.862 35.9831 42.1865 35.6624 42.673 35.5023C43.3123 35.8932 43.88 36.3741 44.3758 36.9448C45.0262 35.2494 45.2695 33.4867 45.1055 31.6557C46.2965 31.4561 46.945 31.937 47.0515 33.0982C46.5266 41.5877 46.6079 50.0825 47.2948 58.5821C47.538 58.8225 47.7813 59.0629 48.0245 59.3033C47.6173 59.7894 47.4553 60.3505 47.538 60.9862C47.538 62.108 47.538 63.2302 47.538 64.352C50.2858 64.2611 50.9348 65.3031 49.4841 67.4774C48.855 67.713 48.206 67.7933 47.538 67.7178C47.538 76.2126 47.538 84.7069 47.538 93.2017C49.322 93.2017 51.1056 93.2017 52.8896 93.2017C52.8896 89.1949 52.8896 85.1877 52.8896 81.181C53.125 76.3121 53.6115 71.424 54.3491 66.5157C53.9954 65.843 53.7521 65.1218 53.6193 64.352C53.3902 54.17 53.3089 44.0726 53.3761 34.0598C53.9891 33.6357 54.5563 33.1549 55.0788 32.6173C55.1046 31.2975 55.6724 30.3358 56.7816 29.7324C57.5624 31.3292 58.5354 31.4893 59.7006 30.2132C59.3557 31.5331 59.3557 32.9756 59.7006 34.5407C59.4097 35.1633 59.1664 35.8043 58.9708 36.464C58.6527 35.8889 58.4094 35.8889 58.2411 36.464C60.2586 36.7847 62.2046 37.1054 64.0791 37.4256Z" fill="#170403"/>
<path fill-rule="evenodd" clip-rule="evenodd" d="M84.5122 106.665C85.8097 106.665 87.1067 106.665 88.4042 106.665C88.4042 108.107 88.4042 109.55 88.4042 110.992C87.1067 110.992 85.8097 110.992 84.5122 110.992C84.5122 109.55 84.5122 108.107 84.5122 106.665Z" fill="#7F4A31"/>
<path fill-rule="evenodd" clip-rule="evenodd" d="M64.5656 106.665C65.8631 106.665 67.1601 106.665 68.4576 106.665C68.4576 108.107 68.4576 109.55 68.4576 110.992C67.1601 110.992 65.8631 110.992 64.5656 110.992C64.5656 109.55 64.5656 108.107 64.5656 106.665Z" fill="#915C40"/>
<path fill-rule="evenodd" clip-rule="evenodd" d="M37.808 106.665C39.2675 106.665 40.727 106.665 42.1865 106.665C42.1865 108.107 42.1865 109.55 42.1865 110.992C40.727 110.992 39.2675 110.992 37.808 110.992C37.808 109.55 37.808 108.107 37.808 106.665Z" fill="#8D5434"/>
<path fill-rule="evenodd" clip-rule="evenodd" d="M57.7546 106.665C59.0521 106.665 60.3491 106.665 61.6466 106.665C61.6466 108.107 61.6466 109.55 61.6466 110.992C60.3725 111.121 59.1562 110.961 57.9978 110.511C57.756 109.239 57.6748 107.957 57.7546 106.665Z" fill="#935A39"/>
<path fill-rule="evenodd" clip-rule="evenodd" d="M78.1877 106.665C79.3227 106.665 80.4582 106.665 81.5932 106.665C81.5932 108.107 81.5932 109.55 81.5932 110.992C80.4582 110.992 79.3227 110.992 78.1877 110.992C78.1877 109.55 78.1877 108.107 78.1877 106.665Z" fill="#8E583B"/>
<path fill-rule="evenodd" clip-rule="evenodd" d="M91.3232 106.665C92.2962 106.665 93.2693 106.665 94.2423 106.665C94.2423 108.107 94.2423 109.55 94.2423 110.992C93.2693 110.992 92.2962 110.992 91.3232 110.992C91.3232 109.55 91.3232 108.107 91.3232 106.665Z" fill="#895337"/>
<path fill-rule="evenodd" clip-rule="evenodd" d="M30.997 106.665C32.2945 106.665 33.5915 106.665 34.889 106.665C34.889 108.107 34.889 109.55 34.889 110.992C33.5915 110.992 32.2945 110.992 30.997 110.992C30.997 109.55 30.997 108.107 30.997 106.665Z" fill="#8E5939"/>
<path fill-rule="evenodd" clip-rule="evenodd" d="M71.3767 107.146C72.5117 107.146 73.6472 107.146 74.7822 107.146C74.7822 108.428 74.7822 109.71 74.7822 110.992C73.6472 110.992 72.5117 110.992 71.3767 110.992C71.3767 109.71 71.3767 108.428 71.3767 107.146Z" fill="#9B5936"/>
<path fill-rule="evenodd" clip-rule="evenodd" d="M49.9706 104.742C49.6762 105.475 49.109 105.956 48.2678 106.184C47.0715 110.211 48.4502 111.493 52.4031 110.031C52.4838 106.181 52.4031 102.334 52.1598 98.4908C50.837 98.0369 49.4588 97.8767 48.0245 98.0099C48.0245 98.9716 48.0245 99.9332 48.0245 100.895C48.8244 100.792 49.5541 100.953 50.2138 101.376C50.5977 102.439 50.5164 103.401 49.9706 104.261C50.4571 101.857 49.4841 100.895 47.0515 101.376C47.0515 99.9332 47.0515 98.4908 47.0515 97.0483C48.9976 97.0483 50.9436 97.0483 52.8896 97.0483C52.8896 101.696 52.8896 106.344 52.8896 110.992C51.1056 110.992 49.322 110.992 47.538 110.992C47.538 109.069 47.538 107.146 47.538 105.222C48.4099 105.287 49.2204 105.127 49.9706 104.742Z" fill="#83533A"/>
<path fill-rule="evenodd" clip-rule="evenodd" d="M81.1067 102.818C81.8039 101.848 81.6414 101.046 80.6202 100.414C81.2633 100.332 81.8311 100.492 82.323 100.895C84.3483 99.1096 85.402 99.7505 85.4852 102.818C84.0257 102.818 82.5662 102.818 81.1067 102.818Z" fill="#88563D"/>
<path fill-rule="evenodd" clip-rule="evenodd" d="M49.9706 104.742C49.9706 104.581 49.9706 104.421 49.9706 104.261C50.5164 103.401 50.5977 102.439 50.2138 101.376C49.5541 100.953 48.8244 100.792 48.0245 100.895C48.0245 99.9332 48.0245 98.9716 48.0245 98.0099C49.4588 97.8767 50.837 98.0369 52.1598 98.4908C52.4031 102.334 52.4838 106.181 52.4031 110.031C48.4502 111.493 47.0715 110.211 48.2678 106.184C49.109 105.956 49.6762 105.475 49.9706 104.742Z" fill="#A35F38"/>
<path fill-rule="evenodd" clip-rule="evenodd" d="M91.8097 99.4524C92.4583 99.4524 93.1072 99.4524 93.7558 99.4524C93.7558 100.574 93.7558 101.696 93.7558 102.818C92.2962 102.818 90.8367 102.818 89.3772 102.818C89.2498 102.108 89.4118 101.467 89.8637 100.895C90.5453 100.404 91.1943 99.9231 91.8097 99.4524Z" fill="#8A533A"/>
<path fill-rule="evenodd" clip-rule="evenodd" d="M82.5662 87.4317C83.8369 88.8963 84.8099 90.5792 85.4852 92.4804C85.132 93.8715 84.321 94.9129 83.0527 95.6058C81.4142 93.9691 80.2792 92.0457 79.6472 89.8359C80.9067 89.394 81.8797 88.5924 82.5662 87.4317Z" fill="#BA835C"/>
<path fill-rule="evenodd" clip-rule="evenodd" d="M62.6196 90.7975C63.5391 90.6999 64.2689 91.0201 64.8089 91.7592C65.1334 94.1633 65.1334 96.5674 64.8089 98.9716C63.8359 99.6125 62.8629 99.6125 61.8899 98.9716C61.5654 96.5674 61.5654 94.1633 61.8899 91.7592C62.2387 91.4976 62.4819 91.1769 62.6196 90.7975Z" fill="#160402"/>
<path fill-rule="evenodd" clip-rule="evenodd" d="M52.8896 81.181C52.8896 85.1877 52.8896 89.1949 52.8896 93.2017C51.1056 93.2017 49.322 93.2017 47.538 93.2017C47.538 84.7069 47.538 76.2126 47.538 67.7178C48.206 67.7933 48.855 67.713 49.4841 67.4774C50.9348 65.3031 50.2858 64.2611 47.538 64.352C47.538 63.2302 47.538 62.108 47.538 60.9862C48.6852 61.105 49.6582 60.7847 50.4571 60.0245C50.1905 61.267 49.3795 61.7478 48.0245 61.467C47.72 63.3302 48.531 64.2121 50.4571 64.1116C51.6388 66.7302 50.8278 68.0928 48.0245 68.1986C48.0245 76.052 48.0245 83.9058 48.0245 91.7592C49.4841 91.7592 50.9436 91.7592 52.4031 91.7592C52.4843 73.4872 52.4031 55.2158 52.1598 36.9448C50.837 36.4909 49.4588 36.3308 48.0245 36.464C48.0245 43.3557 48.0245 50.2479 48.0245 57.1396C48.8355 57.1396 49.6461 57.1396 50.4571 57.1396C50.4571 57.6204 50.4571 58.1012 50.4571 58.5821C49.6582 57.8219 48.6852 57.5016 47.538 57.6204C47.6431 50.0781 47.4811 42.5455 47.0515 35.0215C48.981 35.3398 50.927 35.4999 52.8896 35.5023C52.8896 50.7287 52.8896 65.9546 52.8896 81.181Z" fill="#996545"/>
<path fill-rule="evenodd" clip-rule="evenodd" d="M93.2692 89.8359C93.7558 89.8359 94.2423 89.8359 94.7288 89.8359C94.8115 90.4715 94.6495 91.0326 94.2423 91.5188C92.8757 92.3559 91.4162 92.917 89.8637 93.2017C89.7572 92.6367 89.9192 92.1559 90.3502 91.7592C91.4259 91.2014 92.3989 90.5605 93.2692 89.8359Z" fill="#71402E"/>
<path fill-rule="evenodd" clip-rule="evenodd" d="M91.8097 85.9892C92.2962 85.9892 92.7827 85.9892 93.2692 85.9892C92.7307 88.1169 91.2712 89.2387 88.8907 89.355C88.7842 88.7901 88.9462 88.3092 89.3772 87.9126C90.3108 87.3779 91.1218 86.7364 91.8097 85.9892Z" fill="#8B5536"/>
<path fill-rule="evenodd" clip-rule="evenodd" d="M78.1877 81.6618C80.1137 83.2182 81.5732 85.1415 82.5662 87.4317C81.8797 88.5924 80.9067 89.394 79.6472 89.8359C78.3862 87.3798 77.4132 84.8155 76.7282 82.1426C77.0731 81.7079 77.5596 81.5478 78.1877 81.6618Z" fill="#F5E4C9"/>
<path fill-rule="evenodd" clip-rule="evenodd" d="M62.6196 84.0659C64.9363 84.3506 65.5853 85.5526 64.5656 87.6721C61.5016 87.9101 60.8526 86.7081 62.6196 84.0659Z" fill="#190B06"/>
<path fill-rule="evenodd" clip-rule="evenodd" d="M89.8637 82.1426C90.9272 82.1479 91.3325 82.6287 91.08 83.5851C90.0802 84.5732 88.9452 85.3743 87.6745 85.9892C87.1773 85.5786 86.772 85.0978 86.4582 84.5468C87.5402 83.6168 88.6757 82.8153 89.8637 82.1426Z" fill="#855237"/>
<path fill-rule="evenodd" clip-rule="evenodd" d="M50.4571 60.0245C50.4571 59.5437 50.4571 59.0629 50.4571 58.5821C50.4571 58.1012 50.4571 57.6204 50.4571 57.1396C49.6461 57.1396 48.8355 57.1396 48.0245 57.1396C48.0245 50.2479 48.0245 43.3557 48.0245 36.464C49.4588 36.3308 50.837 36.4909 52.1598 36.9448C52.4031 55.2158 52.4843 73.4872 52.4031 91.7592C50.9436 91.7592 49.4841 91.7592 48.0245 91.7592C48.0245 83.9058 48.0245 76.052 48.0245 68.1986C50.8278 68.0928 51.6388 66.7302 50.4571 64.1116C48.531 64.2121 47.72 63.3302 48.0245 61.467C49.3795 61.7478 50.1905 61.267 50.4571 60.0245Z" fill="#AC673B"/>
<path fill-rule="evenodd" clip-rule="evenodd" d="M85.9717 78.7768C87.1768 78.5609 88.1498 78.8812 88.8907 79.7385C87.7917 80.7218 86.5755 81.5228 85.242 82.1426C84.6732 81.8979 84.268 81.4973 84.0257 80.9405C84.8489 80.3121 85.4974 79.5909 85.9717 78.7768Z" fill="#834E32"/>
<path fill-rule="evenodd" clip-rule="evenodd" d="M62.1331 77.8152C64.8843 77.731 65.5328 78.7725 64.0791 80.9405C62.4668 81.5007 61.4938 80.9396 61.1601 79.2576C61.4973 78.7682 61.8213 78.2873 62.1331 77.8152Z" fill="#190D05"/>
<path fill-rule="evenodd" clip-rule="evenodd" d="M83.5392 76.3727C84.1503 76.3539 84.6368 76.5943 84.9987 77.0939C83.9445 77.8152 82.8907 78.5364 81.8364 79.2576C81.512 78.9369 81.512 78.6167 81.8364 78.296C82.5059 77.7166 83.0731 77.0757 83.5392 76.3727Z" fill="#795341"/>
<path fill-rule="evenodd" clip-rule="evenodd" d="M62.1331 71.0836C64.7573 70.6287 65.5683 71.5904 64.5656 73.9685C61.7634 74.7922 60.9529 73.8305 62.1331 71.0836Z" fill="#180B04"/>
<path fill-rule="evenodd" clip-rule="evenodd" d="M67.4846 55.2163C68.9621 56.276 70.5029 57.2377 72.1064 58.1012C74.3127 57.8925 76.0967 56.9309 77.4579 55.2163C77.7824 56.9795 77.7824 58.7422 77.4579 60.5054C77.0527 60.9059 76.6469 61.3069 76.2417 61.7074C73.8092 62.0281 71.3766 62.0281 68.9441 61.7074C68.3598 61.2732 67.9541 60.7126 67.7279 60.0245C67.4856 58.4296 67.4044 56.827 67.4846 55.2163Z" fill="#AF7346"/>
<path fill-rule="evenodd" clip-rule="evenodd" d="M63.1061 115.801C53.7006 115.801 44.2945 115.801 34.889 115.801C35.9072 115.532 36.637 114.891 37.0782 113.877C37.6124 114.583 38.3422 114.984 39.2675 115.079C41.8353 115.445 44.349 115.204 46.8083 114.358C47.376 114.438 47.9433 114.518 48.5111 114.598C46.6983 115.1 46.8603 115.34 48.9976 115.32C48.9976 114.839 48.9976 114.358 48.9976 113.877C49.6407 113.959 50.2085 113.799 50.7003 113.396C51.0049 114.594 51.4101 114.594 51.9166 113.396C52.423 114.594 52.8283 114.594 53.1328 113.396C54.1589 113.654 54.4021 114.135 53.8626 114.839C57.019 115.16 60.1 115.48 63.1061 115.801Z" fill="#2C1D1A"/>
<path fill-rule="evenodd" clip-rule="evenodd" d="M73.3227 37.4256C72.6109 36.4168 72.6922 35.4552 73.5659 34.5407C74.4397 35.1499 75.3314 35.1499 76.2417 34.5407C77.6413 32.1827 78.3711 29.6184 78.4309 26.8474C79.132 24.4481 80.0237 22.1242 81.1067 19.8754C81.5625 17.077 81.5625 14.2723 81.1067 11.4609C81.2575 13.0058 81.0955 14.4483 80.6202 15.7884C79.385 21.3107 77.8447 26.7604 75.9984 32.1365C75.1203 33.3573 73.904 33.8382 72.3497 33.579C68.2825 33.7382 64.2285 33.578 60.1871 33.0982C62.1321 30.0531 64.8887 28.851 68.4576 29.492C70.0427 30.1973 71.6647 30.758 73.3227 31.1749C75.2974 29.5617 75.1349 28.0394 72.8362 26.607C70.2621 25.2453 67.5056 24.6043 64.5656 24.6837C65.6384 23.4624 66.8546 22.4204 68.2144 21.5583C68.5992 20.9597 68.8425 20.3187 68.9441 19.635C68.9758 19.4244 68.895 19.2638 68.7009 19.1542C67.7498 21.215 66.1283 22.3368 63.8359 22.52C63.9307 23.3018 63.9307 24.1033 63.8359 24.9241C60.7607 25.3592 60.5174 26.2411 63.1061 27.5687C61.9118 28.3091 60.6147 28.4697 59.2141 28.0495C59.5936 27.5336 59.5123 26.9724 58.9708 26.3666C58.1555 26.0968 57.507 25.616 57.0248 24.9241C56.9295 25.7829 56.5242 26.4238 55.8086 26.8474C54.4517 26.2954 53.1542 25.6545 51.9166 24.9241C53.0277 24.1375 54.1632 23.4965 55.3221 23.0008C53.1829 23.0368 51.0749 22.7964 48.9976 22.2795C46.2941 21.2938 45.8076 19.6109 47.538 17.2309C47.7633 15.797 47.9253 14.3545 48.0245 12.9034C54.3201 13.2497 60.4602 12.6149 66.4443 10.9983C66.324 10.742 66.1843 10.4955 66.0251 10.2588C66.8639 10.0434 67.1884 9.64243 66.9981 9.05678C68.698 9.48559 68.8619 9.33067 67.49 8.59202L63.8359 10.2588L48.9976 10.9801L35.3755 8.81636C32.3475 11.1618 30.0775 14.0468 28.5645 17.4713C21.3219 20.9525 16.3756 26.482 13.7261 34.0598C9.21286 45.065 4.83434 56.1241 0.590586 67.237C-1.78355 80.8054 3.00023 91.0629 14.9424 98.0099C15.2163 103.646 15.6216 109.256 16.1587 114.839C16.5235 115.14 16.9293 115.38 17.3749 115.56C23.0485 115.801 28.7245 115.881 34.4025 115.801C33.175 115.438 31.878 115.118 30.5105 114.839V112.916C29.8994 114.119 29.1697 114.921 28.3212 115.32C26.8072 114.83 25.591 113.948 24.6724 112.675C26.2171 112.438 27.5141 111.877 28.5645 110.992H25.1589V106.665H28.5645C28.0726 105.765 27.6669 104.803 27.3482 103.78C26.9707 105.294 26.2409 105.534 25.1589 104.501L25.6454 104.02L24.9157 103.78L24.1859 103.539C28.1641 103.457 32.0561 103.217 35.862 102.818H19.8074C19.731 102.158 19.8123 101.517 20.0507 100.895C21.1857 100.414 21.9967 99.6125 22.4832 98.4908C24.9473 92.1467 27.2173 85.7358 29.2942 79.2576C30.2264 75.4447 29.0101 74.483 25.6454 76.3727C24.2998 80.6891 22.6783 84.8564 20.7804 88.8742C20.1344 90.6287 19.4858 92.3915 18.8344 94.1633C14.8237 91.8178 14.3372 88.9329 17.3749 85.5084C18.5469 83.1495 20.4121 81.5469 22.9697 80.7001C23.2129 75.7341 23.2937 70.7657 23.2129 65.7945C24.0478 65.8565 24.8588 66.0166 25.6454 66.2753C28.0833 66.3551 30.5158 66.2748 32.943 66.0349C35.9802 64.929 37.683 62.7653 38.0513 59.5437C38.3758 54.2546 38.3758 48.9655 38.0513 43.6764C37.6694 42.8176 37.1021 42.0964 36.3485 41.5127C34.727 41.1919 33.105 41.1919 31.4835 41.5127C29.8352 43.8644 30.4837 44.9063 33.4295 44.638C33.5098 46.2488 33.4285 47.8514 33.1862 49.4463C31.842 50.8676 30.3018 51.9899 28.5645 52.8121C24.5781 51.4461 22.7941 48.7217 23.2129 44.638C24.1991 44.7159 25.1721 44.6356 26.132 44.3976C27.4295 43.436 27.4295 42.4743 26.132 41.5127C23.8313 41.0338 21.642 41.2742 19.5642 42.2339C19.4824 46.8902 19.2392 51.5384 18.8344 56.1779C17.7398 55.073 16.4428 54.6724 14.9424 54.9758C13.5846 56.4106 13.7466 57.6127 15.4289 58.5821C18.3693 58.9206 19.6668 60.5236 19.3209 63.3903C17.767 62.7854 16.1455 62.4652 14.4559 62.4287C12.4588 62.559 10.6748 63.2004 9.10437 64.352C7.80687 65.7945 7.80687 67.237 9.10437 68.6794C10.2856 67.9375 11.5826 67.4567 12.9964 67.237C14.8281 66.5446 16.6121 66.785 18.3479 67.9582C20.254 69.7204 19.7675 70.6018 16.8884 70.6027C11.6522 72.0096 8.00342 75.2153 5.94211 80.2193C4.98175 78.0791 4.5765 75.8351 4.72585 73.4877C4.66212 70.8537 5.06738 68.2895 5.94211 65.7945C10.7706 54.4839 15.4737 43.1042 20.0507 31.6557C21.1648 29.6752 22.5435 27.912 24.1859 26.3666C24.7766 27.5009 24.7766 28.6226 24.1859 29.7324C24.1057 31.5028 24.1864 33.2655 24.4292 35.0215C24.562 35.9009 24.9678 36.6222 25.6454 37.1852C31.1152 37.2708 36.548 37.5112 41.9433 37.9065C42.1865 44.7962 42.2678 51.6884 42.1865 58.5821C42.5908 52.2544 42.8341 45.843 42.9163 39.3489C42.9973 39.5093 43.0784 39.6695 43.1595 39.8298L43.2911 40.0896L43.4028 40.3106C44.7144 38.219 44.1466 36.9366 41.7 36.464C41.862 35.9831 42.1865 35.6624 42.673 35.5023C43.3123 35.8932 43.88 36.3741 44.3758 36.9448C45.0262 35.2494 45.2695 33.4867 45.1055 31.6557C46.2965 31.4561 46.945 31.937 47.0515 33.0982C46.5266 41.5877 46.6079 50.0825 47.2948 58.5821L48.0245 59.3033C47.6173 59.7894 47.4553 60.3505 47.538 60.9862C48.6852 61.105 49.6582 60.7847 50.4571 60.0245V58.5821C49.6582 57.8219 48.6852 57.5016 47.538 57.6204C47.6431 50.0781 47.4811 42.5455 47.0515 35.0215C48.981 35.3398 50.927 35.4999 52.8896 35.5023V81.181C53.125 76.3121 53.6115 71.424 54.3491 66.5157C53.9954 65.843 53.7521 65.1218 53.6193 64.352C53.3902 54.17 53.3089 44.0726 53.3761 34.0598C53.9891 33.6357 54.5563 33.1549 55.0788 32.6173C55.1046 31.2975 55.6724 30.3358 56.7816 29.7324C57.5624 31.3292 58.5354 31.4893 59.7006 30.2132C59.3557 31.5331 59.3557 32.9756 59.7006 34.5407C59.4097 35.1633 59.1664 35.8043 58.9708 36.464C58.6527 35.8889 58.4094 35.8889 58.2411 36.464C60.2586 36.7847 62.2046 37.1054 64.0791 37.4256H73.3227ZM41.2135 11.9417H39.2675C37.6582 13.4491 35.9554 14.8916 34.1592 16.2692C31.2247 20.7236 29.3594 25.6122 28.5645 30.9344C28.6204 31.8456 28.9449 32.6472 29.5375 33.3386C33.4397 33.7386 37.3317 33.6583 41.2135 33.0982C40.2162 30.7609 38.4322 29.4785 35.862 29.2515C34.3485 30.0617 32.727 30.3022 30.997 29.9728C30.4842 29.3054 30.4034 28.5842 30.7537 27.8091C33.9904 24.3649 37.5584 24.0442 41.4568 26.8474C40.6068 21.9199 40.5256 16.951 41.2135 11.9417ZM54.3491 27.3282H51.4301V32.1365H54.3491V27.3282ZM48.7543 26.8474C48.0946 26.4243 47.3649 26.2637 46.565 26.3666C46.045 27.7648 45.9637 29.2073 46.3218 30.694C46.9815 31.1172 47.7112 31.2778 48.5111 31.1749C48.5991 29.7069 48.6804 28.2644 48.7543 26.8474ZM18.3479 78.296C18.9239 75.9794 17.9509 75.0177 15.4289 75.411C15.3749 75.7077 15.2129 75.9481 14.9424 76.1323L17.6182 78.7768C17.8196 78.5571 18.0628 78.3965 18.3479 78.296ZM15.1857 81.181C14.8928 79.5322 13.839 78.5705 12.0234 78.296C11.8755 78.6085 11.7135 78.9292 11.5369 79.2576C12.3265 80.9603 13.5427 81.6012 15.1857 81.181ZM28.3212 58.1012C26.4409 57.4444 24.7381 56.4828 23.2129 55.2163C23.1327 56.6674 23.2139 58.1099 23.4562 59.5437C23.5097 60.6727 24.0774 61.3939 25.1589 61.7074C27.6075 62.106 30.04 62.0257 32.4565 61.467C33.9131 59.5764 34.2376 57.493 33.4295 55.2163C31.896 56.4962 30.1933 57.4579 28.3212 58.1012ZM12.2666 84.0659C11.4376 83.1653 10.5459 82.3638 9.59088 81.6618C8.82707 83.7399 9.55682 85.1824 11.7801 85.9892C12.4442 85.4637 12.6067 84.8227 12.2666 84.0659ZM9.10437 86.9509C8.80907 87.0105 8.64706 87.1706 8.61787 87.4317C9.21919 88.4468 9.94894 89.4084 10.8071 90.3167C11.243 88.7338 10.6753 87.612 9.10437 86.9509ZM21.7534 107.146H19.8074V110.992H21.7534V107.146Z" fill="black"/>
<path fill-rule="evenodd" clip-rule="evenodd" d="M39.2675 11.9417H41.2135C40.5256 16.951 40.6068 21.9199 41.4568 26.8474C37.5584 24.0442 33.9904 24.3649 30.7537 27.8091C30.4034 28.5842 30.4842 29.3054 30.997 29.9728C32.727 30.3022 34.3485 30.0617 35.862 29.2515C38.4322 29.4785 40.2162 30.7609 41.2135 33.0982C37.3317 33.6583 33.4397 33.7386 29.5375 33.3386C28.9449 32.6472 28.6204 31.8456 28.5645 30.9344C29.3594 25.6122 31.2247 20.7236 34.1592 16.2692C35.9554 14.8916 37.6582 13.4491 39.2675 11.9417ZM33.916 19.1542C36.3451 19.3931 36.8316 20.4351 35.3755 22.2795C32.7717 22.3637 32.2852 21.3222 33.916 19.1542Z" fill="#A76841"/>
<path d="M66.9981 8.33554L67.4846 7.85471C67.0332 7.66815 66.7087 7.34744 66.5116 6.89305C67.0017 6.55313 67.2196 6.11341 67.4608 5.62669C67.6028 5.34026 67.7529 5.03755 67.9712 4.72933C58.5043 8.7896 49.4972 9.02994 40.9499 5.45057L35.3755 8.81636L48.9976 10.9801L63.8359 10.2588L67.49 8.59202C67.3435 8.51317 67.1796 8.42769 66.9981 8.33554Z" fill="black"/>
</svg>
