<svg width="1080" height="1568" viewBox="0 0 1080 1568" fill="none"
    xmlns="http://www.w3.org/2000/svg">
    <path fill-rule="evenodd" clip-rule="evenodd"
        d="M1049.78 205.023C1041.99 205.921 1034.05 206.384 1025.99 206.384C921.967 206.384 837.637 129.194 837.637 33.9756C837.637 22.4215 838.879 11.1329 841.246 0.215375C767.682 -4.9815 633.791 84.8764 558.24 160.799C501.41 217.906 479.941 247.043 390.013 389.09C259.431 595.348 191.807 682.113 67.0395 803.471C26.4165 842.979 -3.59234 875.307 0.347648 875.307C19.1213 875.307 103.027 855.326 150.604 839.526C245.562 807.993 324.784 759.684 396.421 689.637C443.666 643.436 475.182 604.056 529.092 523.86C551.974 489.82 571.301 461.276 572.042 460.427C572.777 459.574 568.465 476.483 562.455 498.003C531.361 609.322 508.386 737.717 496.526 866.466C474.654 1103.93 418.665 1343.09 346.092 1509.06C332.486 1540.17 321.358 1566.34 321.358 1567.21C321.358 1573.77 470.413 1515.11 540.739 1480.88C987.845 1263.26 1137.94 683.604 1060.61 227.733C1059.67 222.24 1055.67 214.298 1049.78 205.023Z"
        fill="black" />
</svg>
