<svg width="208" height="189" viewBox="0 0 208 189" fill="none" xmlns="http://www.w3.org/2000/svg">
<path fill-rule="evenodd" clip-rule="evenodd" d="M113.451 13.0597C119.854 13.5737 126.173 14.5501 132.408 15.989C132.41 16.6527 132.743 16.9835 133.408 16.9815C133.498 18.4699 132.837 19.4675 131.423 19.9743C110.842 13.9487 91.57 16.6621 73.606 28.1146C71.0433 29.173 68.3851 29.3469 65.6294 28.6367C79.3625 17.0214 95.3031 11.8292 113.451 13.0597Z" fill="#F3E0C3"/>
<path fill-rule="evenodd" clip-rule="evenodd" d="M132.408 15.989C137.629 16.6947 142.62 18.173 147.381 20.4237C154.607 27.4048 159.951 35.5193 163.411 44.767C163.751 47.4212 164.092 50.0745 164.432 52.7287C161.788 52.8263 159.459 52.1703 157.446 50.7587C155.286 42.1929 151.772 34.2388 146.902 26.8965C142.805 22.99 138.307 19.685 133.408 16.9815C132.743 16.9835 132.41 16.6527 132.408 15.989Z" fill="#9A5C3A"/>
<path fill-rule="evenodd" clip-rule="evenodd" d="M133.408 16.9815C138.307 19.685 142.805 22.99 146.902 26.8965C151.772 34.2388 155.286 42.1929 157.446 50.7587C152.422 49.9894 147.433 49.009 142.478 47.8174C141.646 44.5496 141.137 41.2325 140.951 37.8661C139.722 34.91 137.725 34.2523 134.962 35.8931C134.797 39.2605 134.308 42.5807 133.496 45.8535C127.852 44.5449 122.196 43.2347 116.531 41.9227C115.48 42.105 114.484 42.4399 113.542 42.9273C112.219 44.9225 112.225 46.9137 113.56 48.9008C120.267 50.3271 126.92 51.9665 133.52 53.8182C134.839 60.5245 134.527 67.163 132.584 73.7329C119.651 70.4638 106.677 67.3511 93.6616 64.3929C79.4287 62.4758 65.1314 61.6889 50.7718 62.0342C51.2775 57.4659 52.9278 53.4785 55.7218 50.0721C55.2867 52.9258 55.9594 55.4127 57.739 57.5329C70.4226 57.6367 83.0575 58.4277 95.6425 59.9068C98.6745 59.9802 101.498 59.3076 104.113 57.8898C105.665 51.1071 107.141 44.299 108.539 37.4668C108.39 35.3257 107.388 33.6695 105.532 32.4979C102.466 30.6693 99.1389 29.6838 95.5503 29.5415C88.2395 28.9385 80.9241 28.4629 73.606 28.1146C91.57 16.6621 110.842 13.9487 131.423 19.9743C132.837 19.4675 133.498 18.4699 133.408 16.9815Z" fill="#9B916C"/>
<path fill-rule="evenodd" clip-rule="evenodd" d="M130.435 22.9641C136.075 22.13 137.744 24.282 135.441 29.4203C129.701 30.5714 128.032 28.4193 130.435 22.9641Z" fill="#170B04"/>
<path fill-rule="evenodd" clip-rule="evenodd" d="M168.385 40.7696C167.039 36.619 165.033 32.8087 162.367 29.3385C162.698 29.1715 163.031 29.0047 163.363 28.8377C168.014 32.9566 172.515 37.2572 176.865 41.7394C179.994 47.2405 182.838 52.8739 185.393 58.6386C181.111 58.8447 176.954 57.8618 172.918 55.6897C171.401 50.5879 169.89 45.6145 168.385 40.7696Z" fill="#945335"/>
<path fill-rule="evenodd" clip-rule="evenodd" d="M148.346 9.967C147.254 10.8634 147.256 11.693 148.354 12.456C145.595 13.9064 142.773 15.0764 139.888 15.9662C138.723 15.8038 137.56 15.6415 136.396 15.4791C137.413 14.1149 136.912 13.2867 134.892 12.9946C131.94 14.564 129.61 13.9074 127.905 11.0247C125.431 10.4324 123.106 11.1032 120.931 13.037C120.609 11.2452 119.943 10.9153 118.933 12.0475C116.373 9.2057 114.546 9.54307 113.451 13.0597C95.3031 11.8292 79.3625 17.0214 65.6294 28.6367C68.3851 29.3469 71.0433 29.173 73.606 28.1146C80.9241 28.4629 88.2395 28.9385 95.5503 29.5415C99.1389 29.6838 102.466 30.6693 105.532 32.4979C107.388 33.6695 108.39 35.3257 108.539 37.4668C107.141 44.299 105.665 51.1071 104.113 57.8898C101.498 59.3076 98.6745 59.9802 95.6425 59.9068C83.0575 58.4277 70.4226 57.6367 57.739 57.5329C55.9594 55.4127 55.2867 52.9258 55.7218 50.0721C55.7188 49.0765 55.7157 48.0808 55.7127 47.0853C53.9288 46.8069 52.2673 47.1435 50.7294 48.096C48.2177 52.8108 46.5703 57.7937 45.7885 63.0449C47.576 63.1729 49.2364 62.8363 50.7718 62.0342C65.1314 61.6889 79.4287 62.4758 93.6616 64.3929C106.677 67.3511 119.651 70.4638 132.584 73.7329C134.527 67.163 134.839 60.5245 133.52 53.8182C126.92 51.9665 120.267 50.3271 113.56 48.9008C112.225 46.9137 112.219 44.9225 113.542 42.9273C114.484 42.4399 115.48 42.105 116.531 41.9227C122.196 43.2347 127.852 44.5449 133.496 45.8535C134.308 42.5807 134.797 39.2605 134.962 35.8931C137.725 34.2523 139.722 34.91 140.951 37.8661C141.137 41.2325 141.646 44.5496 142.478 47.8174C147.433 49.009 152.422 49.9894 157.446 50.7587C159.459 52.1703 161.788 52.8263 164.432 52.7287C164.092 50.0745 163.751 47.4212 163.411 44.767C161.118 37.6716 162.775 36.3392 168.385 40.7696C169.482 47.0683 169.667 53.3728 168.941 59.6841C170.329 60.9104 171.496 62.234 172.444 63.6558C171.49 64.1097 170.66 64.7753 169.957 65.6546C169.64 70.6335 169.322 75.6124 169.005 80.5913C168.603 73.7757 167.419 67.1417 165.454 60.6903C162.693 60.3422 160.033 59.6863 157.47 58.7233C152.207 57.4271 146.885 56.4477 141.504 55.785C141.253 62.7589 140.942 69.729 140.571 76.6953C145.476 78.2953 150.467 79.6072 155.542 80.6322C155.433 81.2468 155.102 81.7456 154.549 82.1286C156.718 83.7011 159.05 85.0221 161.542 86.0898C160.878 86.4233 160.215 86.7579 159.55 87.0914C161.615 87.4077 161.949 88.237 160.555 89.5773C157.686 94.4286 155.193 94.4362 153.076 89.6C152.518 90.1214 151.854 90.455 151.084 90.6017C149.051 89.3245 146.888 88.3355 144.593 87.6346C126.946 81.9098 108.981 77.3189 90.6985 73.86C70.7088 69.116 51.0987 70.1711 31.8691 77.0254C31.0832 77.3096 30.4195 77.8094 29.8791 78.5249C41.1396 78.2985 52.1141 79.7586 62.8024 82.9051C62.0981 83.8072 61.1018 84.1418 59.8136 83.9097C59.3541 85.6046 59.3586 87.098 59.8273 88.3898C56.9456 89.5425 53.9554 90.0494 50.8564 89.9105C49.8629 89.8279 49.0332 90.1629 48.3663 90.9136C47.0678 105.011 46.9436 118.95 47.9946 132.73C48.7734 146.475 54.127 158.074 64.0567 167.527C63.2931 168.289 62.7975 169.286 62.5698 170.518C60.6073 166.932 58.1131 166.608 55.0874 169.545C54.1106 169.073 53.2779 168.413 52.5882 167.561C52.1909 167.79 52.0264 168.123 52.0925 168.559C45.5742 162.255 41.0633 154.636 38.56 145.701C36.5454 132.853 35.6753 119.913 35.9489 106.881C27.2143 108.354 18.5695 107.882 10.0155 105.466C-2.22704 99.2033 -3.24849 91.2416 6.95118 81.5813C15.5001 75.1198 24.7929 69.9484 34.8277 66.0649C40.2169 34.8544 58.1066 14.7223 88.4969 5.6686C96.7469 4.21168 105.054 3.19086 113.419 2.60613C120.799 -1.30606 127.451 -0.330671 133.374 5.53231C138.62 6.54572 143.611 8.02395 148.346 9.967Z" fill="#170705"/>
<path fill-rule="evenodd" clip-rule="evenodd" d="M119.565 55.8517C123.321 56.7214 124.325 58.8758 122.576 62.3139C117.239 62.5044 116.236 60.3509 119.565 55.8517Z" fill="#150902"/>
<path fill-rule="evenodd" clip-rule="evenodd" d="M55.7218 50.0721C52.9278 53.4785 51.2775 57.4659 50.7718 62.0342C49.2364 62.8363 47.576 63.1729 45.7885 63.0449C46.5703 57.7937 48.2177 52.8108 50.7294 48.096C52.2673 47.1435 53.9288 46.8069 55.7127 47.0853C55.7157 48.0808 55.7188 49.0765 55.7218 50.0721Z" fill="#EBDBC5"/>
<path fill-rule="evenodd" clip-rule="evenodd" d="M67.6466 36.0975C78.3438 35.9208 88.9826 36.5522 99.5651 37.9918C98.6985 42.6057 98.0474 47.2534 97.6129 51.936C86.3194 51.141 75.0154 50.5122 63.6999 50.0478C63.6959 48.7207 63.6919 47.3926 63.6878 46.0655C70.2607 46.3551 76.7419 46.0039 83.1314 45.0108C83.8446 43.4034 83.6745 41.9105 82.6192 40.5322C77.3219 39.6096 72.0009 38.796 66.6554 38.0917C67.0154 37.4101 67.3454 36.7455 67.6466 36.0975Z" fill="#F2E0C7"/>
<path fill-rule="evenodd" clip-rule="evenodd" d="M89.6016 41.0089C93.9962 40.5595 95.6647 42.5456 94.606 46.9672C89.1976 47.8956 87.5292 45.9095 89.6016 41.0089Z" fill="#1C0B06"/>
<path fill-rule="evenodd" clip-rule="evenodd" d="M58.6683 35.1292C59.6343 36.342 59.4718 37.6699 58.1817 39.1131C57.1387 40.1288 55.9754 40.2983 54.6928 39.6214C55.9174 37.9584 57.2432 36.461 58.6683 35.1292Z" fill="#CAB9B1"/>
<path fill-rule="evenodd" clip-rule="evenodd" d="M157.47 58.7233C160.033 59.6863 162.693 60.3422 165.454 60.6903C165.574 68.347 165.264 75.9812 164.526 83.5918C161.492 83.369 158.83 82.3815 156.539 80.6292C157.133 73.3427 157.443 66.04 157.47 58.7233Z" fill="#995531"/>
<path fill-rule="evenodd" clip-rule="evenodd" d="M157.47 58.7233C157.443 66.04 157.133 73.3427 156.539 80.6292C156.207 80.6302 155.874 80.6312 155.542 80.6322C150.467 79.6072 145.476 78.2953 140.571 76.6953C140.942 69.729 141.253 62.7589 141.504 55.785C146.885 56.4477 152.207 57.4271 157.47 58.7233Z" fill="#9D906C"/>
<path fill-rule="evenodd" clip-rule="evenodd" d="M148.504 61.7374C153.88 60.7793 155.548 62.7654 153.508 67.6958C147.769 69.4187 146.101 67.4325 148.504 61.7374Z" fill="#160905"/>
<path fill-rule="evenodd" clip-rule="evenodd" d="M90.6985 73.86C79.2395 74.7221 67.607 75.2552 55.7989 75.4594C50.1918 76.6253 44.5428 77.4728 38.853 77.9998C36.3349 78.0045 34.0063 77.679 31.8691 77.0254C51.0987 70.1711 70.7088 69.116 90.6985 73.86Z" fill="#F2E2C4"/>
<path fill-rule="evenodd" clip-rule="evenodd" d="M90.6985 73.86C108.981 77.3189 126.946 81.9098 144.593 87.6346C131.961 99.2428 117.346 102.772 100.745 98.2215C88.3525 92.428 75.7046 87.3221 62.8024 82.9051C52.1141 79.7586 41.1396 78.2985 29.8791 78.5249C30.4195 77.8094 31.0832 77.3096 31.8691 77.0254C34.0063 77.679 36.3349 78.0045 38.853 77.9998C44.5428 77.4728 50.1918 76.6253 55.7989 75.4594C67.607 75.2552 79.2395 74.7221 90.6985 73.86Z" fill="#9A926A"/>
<path fill-rule="evenodd" clip-rule="evenodd" d="M172.444 63.6558C177.77 64.8035 182.762 66.7796 187.421 69.5839C188.61 76.8561 188.632 84.1567 187.487 91.4868C182.424 90.1422 177.433 88.4987 172.513 86.5543C171.973 78.9605 171.95 71.3274 172.444 63.6558Z" fill="#914C2D"/>
<path fill-rule="evenodd" clip-rule="evenodd" d="M116.67 87.7194C119.513 87.5635 121.18 88.8865 121.668 91.6866C119.358 97.0031 117.03 97.0102 114.687 91.7078C114.934 90.141 115.594 88.8119 116.67 87.7194Z" fill="#1A1107"/>
<path fill-rule="evenodd" clip-rule="evenodd" d="M54.8515 91.8896C59.2923 92.5222 63.617 93.671 67.8265 95.3348C78.061 99.753 88.3783 103.87 98.7794 107.686C98.86 108.93 99.5277 109.757 100.782 110.169C104.884 111.093 109.041 111.578 113.252 111.624C121.668 110.084 130.143 109.561 138.677 110.053C140.445 110.581 140.78 111.41 139.682 112.539C126.373 118.559 112.254 121.589 97.3259 121.628C89.8914 120.371 82.4094 119.564 74.8799 119.208C69.0137 117.138 63.0245 115.33 56.9126 113.786C54.932 112.826 52.9345 111.836 50.9199 110.818C48.901 105.425 48.3852 99.7844 49.3726 93.8974C50.8077 92.2453 52.6346 91.5757 54.8515 91.8896Z" fill="#C78655"/>
<path fill-rule="evenodd" clip-rule="evenodd" d="M50.8564 89.9105C52.1878 90.5705 53.5201 91.2296 54.8515 91.8896C52.6346 91.5757 50.8077 92.2453 49.3726 93.8974C48.3852 99.7844 48.901 105.425 50.9199 110.818C50.2708 110.517 49.6046 110.188 48.9224 109.828C47.9512 117.436 47.6413 125.069 47.9946 132.73C46.9436 118.95 47.0678 105.011 48.3663 90.9136C49.0332 90.1629 49.8629 89.8279 50.8564 89.9105Z" fill="#A27C63"/>
<path fill-rule="evenodd" clip-rule="evenodd" d="M155.614 104.526C129.138 122.486 100.232 127.386 68.8964 119.226C64.59 117.873 60.5954 116.06 56.9126 113.786C63.0245 115.33 69.0137 117.138 74.8799 119.208C82.4094 119.564 89.8914 120.371 97.3259 121.628C112.254 121.589 126.373 118.559 139.682 112.539C140.78 111.41 140.445 110.581 138.677 110.053C130.143 109.561 121.668 110.084 113.252 111.624C109.041 111.578 104.884 111.093 100.782 110.169C99.5277 109.757 98.86 108.93 98.7794 107.686C107.308 109.612 115.953 110.084 124.713 109.1C135.177 105.831 144.803 100.99 153.59 94.5765C154.694 97.8118 155.369 101.128 155.614 104.526Z" fill="#BD845A"/>
<path fill-rule="evenodd" clip-rule="evenodd" d="M135.884 175.273C110.347 186.429 86.4042 183.846 64.0567 167.527C54.127 158.074 48.7734 146.475 47.9946 132.73C47.6413 125.069 47.9512 117.436 48.9224 109.828C49.6046 110.188 50.2708 110.517 50.9199 110.818C52.9345 111.836 54.932 112.826 56.9126 113.786C60.5954 116.06 64.59 117.873 68.8964 119.226C100.232 127.386 129.138 122.486 155.614 104.526C155.948 107.324 156.787 109.977 158.132 112.483C160.417 114.949 162.911 115.108 165.613 112.958C170.872 102.339 178.842 99.6609 189.523 104.921C197.53 113.012 198.721 122.135 193.096 132.289C185.603 140.588 176.799 142.44 166.686 137.845C165.341 140.909 164.186 144.065 163.224 147.314C157.281 159.773 148.168 169.092 135.884 175.273Z" fill="#FCE8CA"/>
<path fill-rule="evenodd" clip-rule="evenodd" d="M186.575 119.366C181.745 118.73 178.594 120.73 177.119 125.368C175.107 126.859 173.445 126.533 172.13 124.388C171.632 122.763 171.461 121.104 171.616 119.412C175.296 110.872 181.109 109.195 189.053 114.381C190.135 117.127 189.31 118.788 186.575 119.366Z" fill="#1B0906"/>
<path fill-rule="evenodd" clip-rule="evenodd" d="M171.616 119.412C171.461 121.104 171.632 122.763 172.13 124.388C173.445 126.533 175.107 126.859 177.119 125.368C178.594 120.73 181.745 118.73 186.575 119.366C187.677 125.183 185.36 128.509 179.624 129.343C176.792 128.027 174.129 127.039 171.637 126.381C170.367 123.923 170.36 121.6 171.616 119.412Z" fill="#B98963"/>
<path d="M197.883 66.5654C191.977 38.3249 175.465 19.4588 148.346 9.967C147.254 10.8634 147.256 11.693 148.354 12.456C145.595 13.9064 142.773 15.0764 139.888 15.9662L136.396 15.4791C137.413 14.1149 136.912 13.2867 134.892 12.9946C131.94 14.564 129.61 13.9074 127.905 11.0247C125.431 10.4324 123.106 11.1032 120.931 13.037C120.609 11.2452 119.943 10.9153 118.933 12.0475C116.373 9.2057 114.546 9.54307 113.451 13.0597C119.854 13.5737 126.173 14.5501 132.408 15.989C137.629 16.6947 142.62 18.173 147.381 20.4237C154.607 27.4048 159.951 35.5193 163.411 44.767C161.118 37.6716 162.775 36.3392 168.385 40.7696C169.482 47.0683 169.667 53.3728 168.941 59.6841C170.329 60.9104 171.496 62.234 172.444 63.6558C171.49 64.1097 170.66 64.7753 169.957 65.6546C169.64 70.6335 169.322 75.6124 169.005 80.5913C168.603 73.7757 167.419 67.1417 165.454 60.6903C165.574 68.347 165.264 75.9812 164.526 83.5918C161.492 83.369 158.83 82.3815 156.539 80.6292L155.542 80.6322C155.433 81.2468 155.102 81.7456 154.549 82.1286C156.718 83.7011 159.05 85.0221 161.542 86.0898C160.878 86.4233 160.215 86.7579 159.55 87.0914C161.615 87.4077 161.949 88.237 160.555 89.5773C157.686 94.4286 155.193 94.4362 153.076 89.6C152.518 90.1214 151.854 90.455 151.084 90.6017C149.051 89.3245 146.888 88.3355 144.593 87.6346C131.961 99.2428 117.346 102.772 100.745 98.2215C88.3525 92.428 75.7046 87.3221 62.8024 82.9051C62.0981 83.8072 61.1018 84.1418 59.8136 83.9097C59.3541 85.6046 59.3586 87.098 59.8273 88.3898C56.9456 89.5425 53.9554 90.0494 50.8564 89.9105C52.1878 90.5705 53.5201 91.2296 54.8515 91.8896C59.2923 92.5222 63.617 93.671 67.8265 95.3348C78.061 99.753 88.3783 103.87 98.7794 107.686C107.308 109.612 115.953 110.084 124.713 109.1C135.177 105.831 144.803 100.99 153.59 94.5765C154.694 97.8118 155.369 101.128 155.614 104.526C155.948 107.324 156.787 109.977 158.132 112.483C160.417 114.949 162.911 115.108 165.613 112.958C170.872 102.339 178.842 99.6609 189.523 104.921C197.53 113.012 198.721 122.135 193.096 132.289C185.603 140.588 176.799 142.44 166.686 137.845C165.341 140.909 164.186 144.065 163.224 147.314C157.281 159.773 135.884 175.273 135.884 175.273L159.302 170.992L160.802 170.717C160.802 170.717 171.425 156.696 176.194 149.265C186.054 150.043 194.354 146.699 201.096 139.234C210.004 124.823 208.966 111.22 197.98 98.4241C197.979 92.113 198.458 85.8055 199.418 79.5034C198.87 75.1952 198.358 70.8828 197.883 66.5654Z" fill="#170604"/>
<path fill-rule="evenodd" clip-rule="evenodd" d="M135.884 175.273C110.347 186.429 86.4042 183.846 64.0567 167.527C63.2931 168.289 62.7975 169.286 62.5698 170.518C60.6073 166.932 58.1131 166.608 55.0874 169.545C54.1106 169.073 53.2779 168.413 52.5882 167.561C52.1909 167.79 52.0264 168.123 52.0925 168.559C53.8176 171.77 56.1528 174.584 59.0991 177L69.0929 183.939L97.0298 188.334L127.442 186.748L134.922 183.274C134.621 183.112 134.284 182.936 133.912 182.746L134.906 181.748C133.98 181.364 133.312 180.702 132.906 179.762C134.498 178.64 135.491 177.143 135.884 175.273Z" fill="#180604"/>
<path fill-rule="evenodd" clip-rule="evenodd" d="M135.884 175.273L159.302 170.992L140.388 180.735L134.922 183.274C134.621 183.112 134.284 182.936 133.912 182.746L134.906 181.748C133.98 181.364 133.312 180.702 132.906 179.762C133.908 179.056 134.352 178.144 134.843 177.134C135.133 176.541 135.438 175.913 135.884 175.273Z" fill="#170604"/>
</svg>
